<svg width="370" height="461" viewBox="0 0 370 461" fill="none" xmlns="http://www.w3.org/2000/svg">
<g clip-path="url(#clip0_2928_5944)">
<g filter="url(#filter0_d_2928_5944)">
<path d="M0 191.068C0 175.258 10.8825 161.528 26.2747 157.918L328.177 87.1153C349.543 82.1043 370 98.3186 370 120.265V383.749C370 402.553 354.756 417.798 335.951 417.798H34.0491C15.2443 417.798 0 402.553 0 383.748V191.068Z" fill="white"/>
<path d="M26.9226 160.68L328.824 89.8777C348.41 85.2844 367.163 100.148 367.163 120.265V383.749C367.163 400.986 353.189 414.96 335.951 414.96H34.0491C16.8113 414.96 2.83742 400.986 2.83742 383.748V191.068C2.83742 176.575 12.8131 163.989 26.9226 160.68Z" stroke="#FFE9F0" stroke-width="5.67485"/>
</g>
<path d="M36.1276 116.967C36.4698 118.201 36.4716 119.43 36.1329 120.655C35.8204 121.872 35.1325 123.01 34.0692 124.068C35.9647 124.277 37.4772 124.889 38.6069 125.905C39.7293 126.894 40.5053 128.162 40.9349 129.711L40.9458 129.75C41.4118 131.43 41.4936 132.948 41.1913 134.304C40.908 135.626 40.3171 136.808 39.4185 137.849C38.539 138.856 37.3984 139.738 35.9969 140.494C34.6144 141.217 33.0439 141.822 31.2852 142.31L24.4345 144.21C23.2533 144.538 22.2399 144.706 21.3942 144.715C20.5412 144.697 19.8094 144.504 19.1985 144.136C18.5877 143.769 18.0681 143.22 17.6397 142.491C17.2375 141.755 16.8799 140.822 16.5668 139.693L11.226 120.44C10.9129 119.312 10.739 118.328 10.7043 117.49C10.6958 116.644 10.8586 115.906 11.1928 115.277C11.5269 114.647 12.0585 114.118 12.7877 113.689C13.5096 113.235 14.4612 112.843 15.6423 112.516L21.3907 110.921C23.2018 110.419 24.9005 110.174 26.4869 110.186C28.0923 110.165 29.5291 110.402 30.7975 110.898C32.0848 111.361 33.1774 112.09 34.0752 113.084C34.992 114.046 35.6543 115.261 36.0621 116.731L36.1276 116.967ZM22.779 131.059L24.1115 135.862C24.2426 136.334 24.4087 136.628 24.6099 136.741C24.8038 136.829 25.1238 136.811 25.57 136.687L29.901 135.486C31.2134 135.122 32.0782 134.571 32.4955 133.833C32.9317 133.062 33.0515 132.322 32.8549 131.613L32.7785 131.338C32.5819 130.629 32.1017 130.07 31.3378 129.66C30.5928 129.216 29.5642 129.176 28.2518 129.54L22.779 131.059ZM20.4913 118.379C20.0451 118.503 19.7651 118.665 19.6513 118.866C19.5302 119.041 19.5352 119.365 19.6663 119.838L20.9988 124.641L25.2903 123.45C25.9465 123.268 26.489 123.033 26.9178 122.745C27.3393 122.43 27.658 122.101 27.8739 121.758C28.1088 121.382 28.2482 121.019 28.292 120.667C28.3549 120.282 28.3389 119.919 28.2443 119.578L28.1678 119.302C27.9712 118.594 27.491 118.034 26.7271 117.624C25.9822 117.181 24.9535 117.141 23.6411 117.505L20.4913 118.379ZM42.296 124.415C41.7062 122.289 41.5596 120.435 41.8561 118.855C42.1527 117.275 42.7356 115.911 43.6051 114.766C44.4745 113.62 45.5312 112.691 46.7752 111.978C48.0454 111.258 49.3499 110.713 50.6885 110.341C52.0009 109.977 53.3738 109.78 54.8071 109.75C56.2666 109.713 57.6641 109.961 58.9995 110.495C60.335 111.029 61.5368 111.897 62.6052 113.099C63.6998 114.294 64.542 115.954 65.1318 118.08L66.1366 121.702C66.7264 123.828 66.8599 125.685 66.5371 127.273C66.2406 128.854 65.6576 130.217 64.7882 131.362C63.9188 132.508 62.8489 133.441 61.5787 134.161C60.3347 134.873 59.0565 135.412 57.7441 135.776C56.4317 136.14 55.0457 136.341 53.5862 136.378C52.1528 136.408 50.7685 136.156 49.4331 135.622C48.0976 135.088 46.8826 134.224 45.788 133.029C44.7197 131.827 43.8906 130.163 43.3008 128.037L42.296 124.415ZM57.1197 119.921C56.9231 119.212 56.6543 118.651 56.3132 118.237C55.9649 117.796 55.5765 117.466 55.1479 117.246C54.7455 117.018 54.3161 116.897 53.8598 116.882C53.3961 116.841 52.9543 116.879 52.5343 116.995C52.1144 117.112 51.7162 117.307 51.3399 117.581C50.9564 117.829 50.6377 118.157 50.3838 118.567C50.1562 118.969 50.0066 119.449 49.935 120.006C49.856 120.537 49.9149 121.156 50.1115 121.865L51.3129 126.196C51.5095 126.905 51.782 127.479 52.1303 127.92C52.4713 128.334 52.843 128.655 53.2454 128.883C53.674 129.103 54.1201 129.234 54.5838 129.275C55.0401 129.289 55.4783 129.238 55.8983 129.122C56.3183 129.005 56.72 128.823 57.1036 128.576C57.4799 128.302 57.7818 127.963 58.0094 127.561C58.2633 127.151 58.4296 126.681 58.5086 126.15C58.5802 125.594 58.5177 124.961 58.3211 124.252L57.1197 119.921ZM68.4415 117.162C67.8517 115.036 67.7051 113.183 68.0016 111.602C68.2982 110.022 68.8812 108.659 69.7506 107.513C70.62 106.367 71.6767 105.438 72.9207 104.725C74.1909 104.005 75.4954 103.46 76.834 103.089C78.1464 102.724 79.5193 102.527 80.9526 102.497C82.4122 102.46 83.8096 102.708 85.1451 103.242C86.4805 103.776 87.6824 104.644 88.7507 105.846C89.8453 107.041 90.6875 108.701 91.2773 110.827L92.2821 114.449C92.8719 116.576 93.0054 118.432 92.6826 120.02C92.3861 121.601 91.8031 122.964 90.9337 124.11C90.0643 125.255 88.9945 126.188 87.7242 126.908C86.4802 127.621 85.202 128.159 83.8896 128.523C82.5772 128.887 81.1912 129.088 79.7317 129.125C78.2984 129.155 76.914 128.903 75.5786 128.369C74.2432 127.835 73.0282 126.971 71.9335 125.776C70.8652 124.574 70.0361 122.91 69.4463 120.784L68.4415 117.162ZM83.2652 112.668C83.0686 111.96 82.7998 111.398 82.4588 110.984C82.1104 110.543 81.722 110.213 81.2934 109.993C80.891 109.765 80.4617 109.644 80.0053 109.629C79.5416 109.588 79.0998 109.626 78.6798 109.742C78.2599 109.859 77.8617 110.054 77.4855 110.328C77.1019 110.576 76.7832 110.905 76.5294 111.314C76.3017 111.717 76.1521 112.196 76.0805 112.753C76.0016 113.284 76.0604 113.904 76.257 114.612L77.4584 118.943C77.655 119.652 77.9275 120.227 78.2758 120.667C78.6168 121.081 78.9885 121.402 79.3909 121.63C79.8195 121.85 80.2656 121.981 80.7293 122.022C81.1857 122.036 81.6238 121.986 82.0438 121.869C82.4638 121.753 82.8655 121.57 83.2491 121.323C83.6254 121.049 83.9273 120.711 84.1549 120.308C84.4088 119.899 84.5752 119.428 84.6541 118.898C84.7257 118.341 84.6632 117.708 84.4666 116.999L83.2652 112.668ZM96.7144 105.503L95.4152 105.863C94.1815 106.205 93.1981 106.125 92.4648 105.622C91.7578 105.111 91.2878 104.436 91.0548 103.596C90.9456 103.202 90.8889 102.794 90.8847 102.371C90.9067 101.941 91.0052 101.532 91.1803 101.144C91.3817 100.749 91.68 100.398 92.0752 100.09C92.4632 99.7565 92.9722 99.5022 93.6021 99.3275L94.9014 98.967L93.7655 94.8723C93.5835 94.2161 93.5283 93.6096 93.5999 93.0526C93.6978 92.4883 93.8868 91.9978 94.1669 91.5808C94.447 91.1639 94.7883 90.8148 95.1908 90.5336C95.6196 90.245 96.0834 90.0316 96.5821 89.8932C97.0808 89.7549 97.5751 89.7026 98.065 89.7363C98.5812 89.7627 99.0667 89.8824 99.5215 90.0955C99.9764 90.3085 100.378 90.6353 100.726 91.0757C101.101 91.5089 101.379 92.0536 101.561 92.7098L102.697 96.8045L105.02 96.1601C105.65 95.9853 106.204 95.9447 106.682 96.0382C107.179 96.0981 107.603 96.2492 107.953 96.4914C108.329 96.7262 108.637 97.0223 108.878 97.3797C109.118 97.737 109.293 98.1125 109.402 98.5062C109.635 99.3461 109.567 100.171 109.198 100.98C108.855 101.782 108.067 102.354 106.833 102.696L104.51 103.34L107.219 113.105C107.386 113.708 107.614 114.069 107.901 114.187C108.214 114.298 108.545 114.32 108.894 114.251C109.19 114.197 109.449 114.111 109.67 113.993C109.885 113.849 110.189 113.722 110.582 113.613C111.239 113.431 111.871 113.468 112.479 113.723C113.087 113.978 113.547 114.416 113.86 115.036C114.27 115.799 114.404 116.539 114.264 117.256C114.15 117.966 113.869 118.581 113.419 119.102C113.053 119.514 112.558 119.92 111.934 120.319C111.31 120.719 110.656 121.013 109.974 121.202C108.662 121.566 107.453 121.746 106.35 121.741C105.246 121.736 104.252 121.517 103.369 121.084C102.485 120.651 101.718 119.973 101.066 119.051C100.415 118.13 99.8818 116.921 99.4668 115.425L96.7144 105.503ZM131.904 114.398L127.95 100.145C127.768 99.4891 127.51 98.967 127.176 98.5791C126.835 98.1648 126.467 97.8571 126.072 97.6557C125.677 97.4544 125.268 97.3558 124.845 97.36C124.441 97.3307 124.069 97.3634 123.728 97.4581C123.386 97.5527 123.037 97.7203 122.68 97.9607C122.341 98.1677 122.051 98.4461 121.809 98.7959C121.567 99.1458 121.403 99.5729 121.316 100.077C121.223 100.556 121.25 101.113 121.399 101.751L125.407 116.2L117.415 118.417L109.278 89.0851C109.096 88.4289 109.044 87.8354 109.123 87.3047C109.221 86.7405 109.41 86.2499 109.69 85.833C109.963 85.3898 110.314 85.024 110.743 84.7354C111.19 84.4133 111.677 84.1795 112.202 84.0338C112.727 83.8882 113.251 83.8417 113.774 83.8944C114.29 83.9208 114.78 84.0537 115.242 84.293C115.696 84.506 116.098 84.8328 116.446 85.2732C116.814 85.6802 117.088 86.2117 117.27 86.8679L119.105 93.4824C119.62 92.6894 120.267 92.0153 121.046 91.46C121.844 90.8712 122.768 90.4312 123.818 90.14C125.104 89.7832 126.362 89.632 127.593 89.6863C128.842 89.7072 130.003 90.0211 131.076 90.628C132.149 91.235 133.128 92.1648 134.013 93.4176C134.897 94.6704 135.627 96.3336 136.203 98.4072L140.014 112.148L131.904 114.398ZM156.499 83.3638C156.676 84.106 157.271 84.6195 158.283 84.9042C159.295 85.1888 160.661 85.3752 162.381 85.4633L164.496 85.5975C165.768 85.697 166.95 85.9344 168.043 86.3095C169.163 86.6773 170.171 87.2033 171.068 87.8875C171.957 88.5454 172.708 89.3687 173.322 90.3575C173.928 91.3201 174.366 92.4422 174.637 93.724C175.233 96.5835 174.695 99.0788 173.025 101.21C171.381 103.334 168.761 104.894 165.165 105.892C163.406 106.38 161.659 106.653 159.922 106.71C158.193 106.794 156.674 106.566 155.364 106.024C154.91 105.811 154.496 105.544 154.125 105.223C153.746 104.876 153.429 104.498 153.174 104.088C152.945 103.671 152.804 103.215 152.752 102.721C152.692 102.2 152.745 101.677 152.91 101.15C153.075 100.624 153.387 100.17 153.847 99.7882C154.306 99.4063 154.794 99.1295 155.312 98.9576C155.987 98.742 156.555 98.6978 157.014 98.8248C157.499 98.9445 157.955 99.0584 158.381 99.1664C158.907 99.3314 159.554 99.4206 160.321 99.434C161.08 99.4211 162.129 99.229 163.468 98.8576C164.57 98.5518 165.369 98.1183 165.863 97.5571C166.358 96.9959 166.498 96.2786 166.284 95.4052C166.182 95.0377 165.939 94.7234 165.556 94.4622C165.173 94.2011 164.665 94.0026 164.034 93.8668C163.429 93.7237 162.736 93.6192 161.954 93.5533C161.165 93.4612 160.328 93.3968 159.441 93.36C159.097 93.3424 158.723 93.3189 158.319 93.2896C157.942 93.253 157.62 93.215 157.355 93.1756C155.684 92.9606 154.262 92.5213 153.088 91.8574C151.907 91.1673 150.931 90.3497 150.16 89.4046C149.408 88.426 148.859 87.3629 148.512 86.2152C148.192 85.0603 148.061 83.9237 148.118 82.8054C148.21 80.49 149.015 78.5 150.532 76.8353C152.075 75.1635 154.199 73.9525 156.902 73.2026C157.926 72.9186 158.833 72.7235 159.623 72.6173C160.433 72.4777 161.148 72.4065 161.769 72.4038C162.409 72.3675 162.968 72.3962 163.447 72.4896C163.944 72.5496 164.402 72.6205 164.82 72.7023C165.877 72.9461 166.779 73.4451 167.525 74.1992C168.297 74.946 168.67 75.8319 168.644 76.8569C168.607 77.7434 168.321 78.4447 167.786 78.9607C167.277 79.4694 166.642 79.8293 165.88 80.0404C165.592 80.1205 165.249 80.1591 164.852 80.156C164.456 80.153 164.147 80.1113 163.927 80.031C163.367 79.8471 162.687 79.739 161.887 79.7066C161.086 79.6743 160.095 79.8219 158.914 80.1496C157.969 80.4117 157.276 80.8161 156.834 81.3627C156.411 81.8758 156.299 82.5428 156.499 83.3638ZM191.773 98.5108C190.356 98.904 188.874 99.1171 187.329 99.1501C185.783 99.1831 184.303 98.9435 182.889 98.4312C181.501 97.9116 180.247 97.0582 179.126 95.871C178.024 94.6502 177.189 93.0161 176.621 90.9687L175.66 87.504C175.077 85.4041 174.935 83.564 175.231 81.9835C175.554 80.3958 176.137 79.0327 176.98 77.8942C177.849 76.7485 178.893 75.8229 180.111 75.1177C181.347 74.3788 182.596 73.8347 183.856 73.4852C185.221 73.1065 186.593 72.9094 187.974 72.8939C189.374 72.8448 190.713 73.1376 191.992 73.7723C193.27 74.407 194.441 75.4675 195.503 76.9536C196.584 78.4063 197.486 80.4318 198.206 83.0304C198.301 83.3716 198.388 83.7858 198.466 84.2728C198.571 84.7525 198.645 85.1703 198.687 85.5261L184.592 89.4361L184.602 89.4755C184.792 90.158 185.093 90.6822 185.505 91.0484C185.918 91.4145 186.387 91.68 186.913 91.845C187.44 92.0099 187.984 92.0852 188.545 92.0708C189.099 92.0302 189.612 91.9443 190.085 91.8133C191.056 91.5439 191.793 91.297 192.296 91.0726C192.799 90.8482 193.288 90.5714 193.762 90.242C194.021 90.0569 194.281 89.8718 194.541 89.6867C194.819 89.4681 195.122 89.2852 195.449 89.1381C196.109 88.87 196.748 88.7777 197.365 88.861C198.008 88.937 198.544 89.2405 198.974 89.7714C199.663 90.6261 199.911 91.5185 199.717 92.4487C199.541 93.3454 199.058 94.2004 198.266 95.0137C198.002 95.2848 197.646 95.5814 197.198 95.9035C196.777 96.2183 196.273 96.5418 195.686 96.874C195.126 97.199 194.503 97.4991 193.816 97.7745C193.163 98.0688 192.482 98.3142 191.773 98.5108ZM185.664 79.8525C185.218 79.9763 184.803 80.1621 184.42 80.4098C184.055 80.624 183.755 80.9192 183.52 81.2953C183.278 81.6451 183.114 82.0723 183.028 82.5768C182.934 83.055 182.979 83.6222 183.161 84.2784L189.815 82.4326C189.659 81.7691 189.431 81.2529 189.131 80.8839C188.849 80.4813 188.528 80.1889 188.166 80.0065C187.798 79.7979 187.389 79.6993 186.94 79.7108C186.509 79.6888 186.084 79.736 185.664 79.8525ZM219.879 89.9932L219.106 88.427C218.541 89.3468 217.805 90.1587 216.898 90.8627C215.991 91.5666 214.947 92.0824 213.765 92.4101L212.899 92.6504C212.086 92.8761 211.17 92.9888 210.152 92.9884C209.142 93.0143 208.146 92.8383 207.165 92.4603C206.21 92.075 205.315 91.447 204.48 90.5762C203.671 89.6982 203.051 88.4848 202.622 86.9362C202.207 85.4401 202.123 84.1205 202.372 82.9774C202.62 81.8344 203.093 80.8408 203.792 79.9968C204.517 79.1456 205.421 78.4285 206.503 77.8457C207.611 77.2555 208.808 76.7821 210.094 76.4253L214.15 75.3003C213.963 74.7301 213.714 74.2904 213.402 73.9812C213.109 73.6385 212.763 73.4094 212.364 73.2941C211.983 73.1452 211.559 73.0933 211.091 73.1384C210.642 73.1499 210.181 73.2212 209.708 73.3522C209.262 73.476 208.84 73.6355 208.442 73.8308C208.044 74.026 207.627 74.2548 207.191 74.5171C206.905 74.7095 206.636 74.9113 206.383 75.1226C206.157 75.3267 205.882 75.5584 205.559 75.8179C205.242 76.1035 204.877 76.3177 204.465 76.4605C204.071 76.5697 203.663 76.6264 203.24 76.6307C202.81 76.6086 202.388 76.5137 201.974 76.3459C201.586 76.1708 201.246 75.9119 200.953 75.5691C200.367 74.8836 200.103 74.137 200.162 73.3292C200.213 72.4952 200.507 71.7211 201.044 71.0068C201.46 70.4675 201.959 69.9755 202.543 69.531C203.126 69.0865 203.75 68.6872 204.415 68.3331C205.073 67.9528 205.745 67.625 206.432 67.3496C207.145 67.067 207.843 66.831 208.525 66.6417C209.943 66.2485 211.338 66.031 212.712 65.9892C214.104 65.9139 215.395 66.1352 216.585 66.6533C217.793 67.1378 218.876 67.9824 219.832 69.1871C220.814 70.3845 221.6 72.0463 222.19 74.1724L226.1 88.2676L219.879 89.9932ZM215.755 81.088L212.172 82.0819C211.411 82.2931 210.885 82.637 210.593 83.1137C210.294 83.5641 210.232 84.1043 210.407 84.7343C210.589 85.3905 210.92 85.8215 211.401 86.0272C211.882 86.233 212.464 86.2412 213.147 86.0519L213.698 85.899C214.065 85.797 214.418 85.6426 214.756 85.4357C215.095 85.2287 215.379 84.9802 215.61 84.6902C215.866 84.3928 216.043 84.0611 216.139 83.6952C216.262 83.322 216.265 82.9254 216.149 82.5054L215.755 81.088ZM229.914 87.2097L224.18 66.5393C223.998 65.8831 223.946 65.2897 224.025 64.759C224.123 64.1947 224.312 63.7041 224.592 63.2872C224.865 62.8441 225.216 62.4782 225.644 62.1896C226.066 61.8748 226.539 61.6446 227.064 61.499C227.825 61.2878 228.585 61.275 229.343 61.4604C230.127 61.6386 230.792 62.0478 231.337 62.6881C231.883 61.8018 232.547 61.038 233.331 60.3967C234.114 59.7554 234.991 59.3001 235.962 59.0306C236.251 58.9506 236.56 58.8931 236.89 58.8582C237.238 58.7898 237.575 58.7811 237.9 58.8323C238.749 58.9361 239.459 59.3045 240.03 59.9375C240.627 60.5633 240.988 61.3537 241.112 62.3087C241.235 63.2638 241.045 64.108 240.542 64.8412C240.065 65.5672 239.393 66.0503 238.527 66.2906C238.239 66.3707 237.937 66.4544 237.622 66.5418C237.299 66.6029 236.998 66.6867 236.716 66.793C235.636 67.1776 234.86 67.746 234.391 68.4982C233.947 69.2431 233.837 70.1216 234.062 71.1335L237.906 84.9925L229.914 87.2097ZM253.721 69.6234C253.954 70.4634 254.265 71.1262 254.654 71.6119C255.036 72.0713 255.454 72.4075 255.909 72.6206C256.357 72.8073 256.822 72.9045 257.304 72.9119C257.806 72.8859 258.28 72.8109 258.726 72.6871C259.382 72.5051 259.922 72.3128 260.347 72.1103C260.79 71.8743 261.242 71.5653 261.701 71.1834C261.953 70.9721 262.215 70.744 262.486 70.4991C262.75 70.228 263.059 70.0153 263.412 69.8608C263.96 69.5956 264.526 69.4952 265.109 69.5596C265.719 69.6167 266.27 69.8735 266.764 70.33C267.151 70.7034 267.426 71.1359 267.591 71.6273C267.774 72.0852 267.84 72.5759 267.787 73.0993C267.753 73.5892 267.621 74.0783 267.389 74.5667C267.157 75.0551 266.844 75.5092 266.452 75.929C265.841 76.5791 265.044 77.224 264.063 77.8637C263.089 78.5298 261.932 79.0484 260.594 79.4198C259.176 79.813 257.698 80.0392 256.16 80.0984C254.648 80.1504 253.198 79.9166 251.81 79.397C250.448 78.8702 249.22 78.0095 248.126 76.8149C247.031 75.6204 246.189 73.9601 245.599 71.834L244.638 68.3692C244.063 66.2956 243.937 64.465 244.259 62.8772C244.582 61.2895 245.178 59.9227 246.048 58.777C246.943 57.624 248.036 56.6707 249.325 55.9174C250.614 55.164 251.941 54.598 253.306 54.2194C254.724 53.8262 255.988 53.6451 257.099 53.6761C258.21 53.7071 259.135 53.8321 259.874 54.051C260.427 54.2087 260.928 54.4371 261.379 54.7361C261.822 55.0089 262.184 55.3466 262.465 55.7492C262.773 56.1444 262.979 56.5819 263.084 57.0616C263.208 57.5079 263.2 57.9905 263.061 58.5095C262.876 59.2676 262.52 59.8187 261.994 60.1626C261.493 60.4993 260.917 60.7156 260.265 60.8116C259.883 60.861 259.517 60.8638 259.165 60.82C258.84 60.7688 258.515 60.7177 258.19 60.6665C257.745 60.592 257.328 60.5663 256.939 60.5895C256.55 60.6127 256.053 60.7081 255.449 60.8755C255.003 60.9993 254.575 61.1887 254.165 61.4437C253.748 61.6725 253.387 61.999 253.08 62.4232C252.793 62.8139 252.607 63.3176 252.524 63.9343C252.434 64.5248 252.505 65.24 252.738 66.0799L253.721 69.6234ZM286.739 71.4461L282.785 57.1934C282.603 56.5372 282.345 56.0152 282.012 55.6272C281.67 55.213 281.302 54.9052 280.907 54.7038C280.512 54.5025 280.103 54.4039 279.68 54.4081C279.277 54.3788 278.904 54.4115 278.563 54.5062C278.222 54.6008 277.872 54.7684 277.515 55.0089C277.177 55.2158 276.886 55.4942 276.644 55.844C276.402 56.1939 276.238 56.6211 276.152 57.1255C276.058 57.6037 276.086 58.1615 276.234 58.7987L280.243 73.2483L272.25 75.4654L264.113 46.1332C263.931 45.477 263.88 44.8836 263.959 44.3528C264.056 43.7886 264.245 43.298 264.526 42.8811C264.798 42.4379 265.149 42.0721 265.578 41.7835C266.026 41.4614 266.512 41.2276 267.037 41.082C267.562 40.9363 268.086 40.8899 268.61 40.9425C269.126 40.969 269.615 41.1018 270.077 41.3411C270.532 41.5541 270.933 41.8809 271.282 42.3214C271.649 42.7283 271.924 43.2599 272.106 43.9161L273.941 50.5306C274.456 49.7375 275.102 49.0634 275.881 48.5081C276.679 47.9194 277.603 47.4793 278.653 47.1881C279.939 46.8313 281.197 46.6801 282.428 46.7345C283.678 46.7553 284.839 47.0692 285.912 47.6762C286.985 48.2831 287.963 49.213 288.848 50.4658C289.733 51.7186 290.463 53.3818 291.038 55.4554L294.85 69.1962L286.739 71.4461Z" fill="#FFC0D3"/>
</g>
<defs>
<filter id="filter0_d_2928_5944" x="-7.94479" y="86.2007" width="385.89" height="348.621" filterUnits="userSpaceOnUse" color-interpolation-filters="sRGB">
<feFlood flood-opacity="0" result="BackgroundImageFix"/>
<feColorMatrix in="SourceAlpha" type="matrix" values="0 0 0 0 0 0 0 0 0 0 0 0 0 0 0 0 0 0 127 0" result="hardAlpha"/>
<feOffset dy="9.07975"/>
<feGaussianBlur stdDeviation="3.97239"/>
<feComposite in2="hardAlpha" operator="out"/>
<feColorMatrix type="matrix" values="0 0 0 0 0 0 0 0 0 0 0 0 0 0 0 0 0 0 0.24 0"/>
<feBlend mode="normal" in2="BackgroundImageFix" result="effect1_dropShadow_2928_5944"/>
<feBlend mode="normal" in="SourceGraphic" in2="effect1_dropShadow_2928_5944" result="shape"/>
</filter>
<clipPath id="clip0_2928_5944">
<rect width="370" height="461" fill="white"/>
</clipPath>
</defs>
</svg>
