<svg width="80" height="80" viewBox="0 0 80 80" fill="none" xmlns="http://www.w3.org/2000/svg">
<path fill-rule="evenodd" clip-rule="evenodd" d="M40 80C62.0914 80 80 62.0914 80 40C80 17.9086 62.0914 0 40 0C17.9086 0 0 17.9086 0 40C0 62.0914 17.9086 80 40 80Z" fill="#49D592"/>
<path d="M31.5673 25.5026C29.6682 24.3707 27.9801 23.4652 26.292 23.9179C24.9416 24.2801 23.9006 25.1253 23.5489 25.5026C23.1269 25.9553 22.5591 27.0706 22.2829 28.2191C21.9534 29.5887 21.8608 30.4829 22.2829 31.8411C22.7049 33.1994 23.1269 33.9345 23.1269 35.5191C23.1269 37.1038 22.2829 39.3116 22.2829 40.4435C22.2829 42.6577 22.6776 43.212 23.5628 44.0972C24.3441 44.8786 25.1255 45.4238 26.081 45.4238C27.4696 45.4238 28.4724 45.1219 29.2461 44.971C29.7477 45.0106 30.5544 46.284 33.2553 47.0084C36.6314 47.9139 38.4472 48.3431 41.6957 47.6875C44.5243 47.1167 47.8149 45.6501 48.4479 44.5183C48.9544 43.6128 47.8149 42.4809 47.3929 41.8017C46.9709 41.1226 49.0863 44.4478 50.769 44.971C53.2531 45.7433 56.0443 45.8765 56.8883 42.2545C57.5635 39.3569 57.1697 35.9159 56.8883 34.5577C56.8883 34.5577 57.9434 30.2565 57.9434 29.351C57.9434 28.4455 57.9434 26.8608 56.8883 25.7289C55.8333 24.5971 54.9279 24.056 53.5122 23.9179C52.0964 23.7798 49.292 25.0498 49.292 25.0498L48.3424 26.0685M47.3929 27.0872L48.3424 26.0685M48.3424 26.0685C48.3424 26.0685 46.6908 24.7273 45.4938 24.1443C43.2117 23.0328 41.6698 23.0101 39.1635 23.0124C37.5892 23.0139 36.6308 22.8789 35.1544 23.4652C33.8682 23.9759 32.1579 25.0498 32.1579 25.0498C31.2425 26.6905 30.7292 27.6103 29.8138 29.251M33.8883 35.9159L31.4216 35.4632C31.3765 35.502 30.8163 35.0716 30.5952 34.5577C30.388 34.076 30.9591 33.2445 30.7886 32.7466C30.6465 32.3317 30.5441 31.9882 30.1555 31.8411C29.9224 31.7529 29.7527 31.7445 29.5225 31.8411C29.0372 32.0449 28.7407 32.9665 28.251 33.1579C27.8341 33.3209 27.0882 32.9931 26.6883 33.1994C26.3561 33.3708 25.9069 33.6521 25.9069 34.5577C25.9069 35.347 27.3323 35.7163 28.0454 35.9159C28.2846 35.9829 28.6785 35.9159 28.6785 35.9159C28.6785 35.9159 28.8921 36.7617 29.1005 37.2742C29.6871 38.7169 31.4216 40.4435 31.4216 40.4435C31.4216 40.4435 32.8301 41.4318 33.7207 41.7531M33.7207 41.7531C33.7207 41.7531 33.7688 42.9633 33.8883 43.3864C34.0413 43.9281 34.2992 44.1951 34.7324 44.5183C35.2249 44.8857 35.6126 45.0367 36.2094 44.971C36.6509 44.9224 36.9021 44.7931 37.2645 44.5183C37.6953 44.1914 37.8605 43.886 38.1085 43.3864C38.3905 42.8183 38.552 42.1933 38.5305 41.8017C38.509 41.4102 39.0344 41.5361 39.5856 40.8962C40.1368 40.2563 35.1544 41.8017 35.1544 41.8017L33.7207 41.7531Z" stroke="white" stroke-width="2" stroke-linecap="round"/>
<path d="M18.2896 58H16.485V52.9091H18.3046C18.8166 52.9091 19.2574 53.011 19.627 53.2148C19.9966 53.417 20.2808 53.7079 20.4796 54.0874C20.6801 54.4669 20.7804 54.9209 20.7804 55.4496C20.7804 55.9799 20.6801 56.4356 20.4796 56.8168C20.2808 57.1979 19.9949 57.4904 19.622 57.6942C19.2508 57.8981 18.8067 58 18.2896 58ZM17.5613 57.0778H18.2449C18.5631 57.0778 18.8307 57.0214 19.0478 56.9087C19.2666 56.7944 19.4306 56.6179 19.54 56.3793C19.651 56.139 19.7065 55.8291 19.7065 55.4496C19.7065 55.0734 19.651 54.766 19.54 54.5273C19.4306 54.2887 19.2674 54.113 19.0503 54.0004C18.8332 53.8877 18.5656 53.8313 18.2474 53.8313H17.5613V57.0778ZM24.9534 54.5547C24.9186 54.4337 24.8697 54.3268 24.8068 54.234C24.7438 54.1396 24.6667 54.06 24.5756 53.9954C24.4861 53.9291 24.3834 53.8786 24.2674 53.8438C24.153 53.8089 24.0262 53.7915 23.887 53.7915C23.6268 53.7915 23.3982 53.8562 23.2009 53.9854C23.0054 54.1147 22.8529 54.3028 22.7436 54.5497C22.6342 54.795 22.5795 55.0949 22.5795 55.4496C22.5795 55.8042 22.6334 56.1058 22.7411 56.3544C22.8488 56.603 23.0013 56.7927 23.1985 56.9237C23.3957 57.0529 23.6285 57.1175 23.897 57.1175C24.1406 57.1175 24.3486 57.0745 24.5209 56.9883C24.6949 56.9004 24.8275 56.777 24.9186 56.6179C25.0114 56.4588 25.0578 56.2707 25.0578 56.0536L25.2766 56.0859H23.9641V55.2756H26.0944V55.9169C26.0944 56.3643 26 56.7488 25.811 57.0703C25.6221 57.3902 25.3619 57.6371 25.0305 57.8111C24.6991 57.9834 24.3196 58.0696 23.892 58.0696C23.4147 58.0696 22.9955 57.9644 22.6342 57.7539C22.2729 57.5418 21.9912 57.241 21.789 56.8516C21.5885 56.4605 21.4882 55.9964 21.4882 55.4595C21.4882 55.0469 21.5479 54.679 21.6672 54.3558C21.7882 54.031 21.9572 53.7559 22.1743 53.5305C22.3914 53.3052 22.6441 53.1336 22.9325 53.016C23.2208 52.8983 23.5332 52.8395 23.8696 52.8395C24.158 52.8395 24.4264 52.8817 24.675 52.9663C24.9236 53.0491 25.144 53.1668 25.3362 53.3192C25.5301 53.4717 25.6884 53.6532 25.811 53.8636C25.9337 54.0724 26.0124 54.3028 26.0472 54.5547H24.9534ZM30.0475 52.9091H31.1238V56.2152C31.1238 56.5864 31.0351 56.9112 30.8578 57.1896C30.6822 57.468 30.4361 57.6851 30.1195 57.8409C29.803 57.995 29.4343 58.0721 29.0134 58.0721C28.5908 58.0721 28.2212 57.995 27.9047 57.8409C27.5882 57.6851 27.3421 57.468 27.1664 57.1896C26.9908 56.9112 26.9029 56.5864 26.9029 56.2152V52.9091H27.9793V56.1232C27.9793 56.3171 28.0215 56.4895 28.106 56.6403C28.1922 56.7911 28.3132 56.9096 28.469 56.9957C28.6247 57.0819 28.8062 57.125 29.0134 57.125C29.2222 57.125 29.4036 57.0819 29.5578 56.9957C29.7135 56.9096 29.8337 56.7911 29.9182 56.6403C30.0044 56.4895 30.0475 56.3171 30.0475 56.1232V52.9091ZM34.3684 55.0344V55.8746H32.0467V55.0344H34.3684ZM35.2906 58V52.9091H37.329C37.7035 52.9091 38.0159 52.9646 38.2661 53.0756C38.5164 53.1867 38.7044 53.3408 38.8304 53.538C38.9563 53.7335 39.0193 53.9589 39.0193 54.2141C39.0193 54.413 38.9795 54.5878 38.9 54.7386C38.8204 54.8878 38.7111 55.0104 38.5719 55.1065C38.4343 55.201 38.2769 55.2681 38.0996 55.3079V55.3576C38.2935 55.3659 38.4749 55.4206 38.644 55.5217C38.8146 55.6228 38.953 55.7644 39.0591 55.9467C39.1651 56.1274 39.2182 56.3428 39.2182 56.593C39.2182 56.8632 39.1511 57.1043 39.0168 57.3164C38.8842 57.5269 38.6879 57.6934 38.4277 57.8161C38.1675 57.9387 37.8468 58 37.4657 58H35.2906ZM36.367 57.12H37.2445C37.5444 57.12 37.7632 57.0629 37.9007 56.9485C38.0382 56.8325 38.107 56.6784 38.107 56.4862C38.107 56.3453 38.073 56.221 38.0051 56.1133C37.9372 56.0056 37.8402 55.921 37.7143 55.8597C37.59 55.7984 37.4417 55.7678 37.2693 55.7678H36.367V57.12ZM36.367 55.0394H37.1649C37.3124 55.0394 37.4433 55.0137 37.5577 54.9624C37.6737 54.9093 37.7648 54.8348 37.8311 54.7386C37.899 54.6425 37.933 54.5273 37.933 54.3931C37.933 54.2092 37.8676 54.0608 37.7366 53.9482C37.6074 53.8355 37.4234 53.7791 37.1848 53.7791H36.367V55.0394ZM40.9874 58.0721C40.7438 58.0721 40.5267 58.0298 40.3362 57.9453C40.1456 57.8591 39.9948 57.7324 39.8837 57.565C39.7744 57.396 39.7197 57.1855 39.7197 56.9336C39.7197 56.7215 39.7586 56.5433 39.8365 56.3991C39.9144 56.255 40.0205 56.139 40.1547 56.0511C40.2889 55.9633 40.4414 55.897 40.6121 55.8523C40.7844 55.8075 40.9651 55.776 41.154 55.7578C41.3761 55.7346 41.555 55.7131 41.6909 55.6932C41.8268 55.6716 41.9254 55.6402 41.9867 55.5987C42.048 55.5573 42.0787 55.496 42.0787 55.4148V55.3999C42.0787 55.2424 42.029 55.1206 41.9296 55.0344C41.8318 54.9483 41.6926 54.9052 41.5119 54.9052C41.3214 54.9052 41.1697 54.9474 41.057 55.032C40.9444 55.1148 40.8698 55.2192 40.8333 55.3452L39.8539 55.2656C39.9036 55.0336 40.0014 54.8331 40.1472 54.6641C40.2931 54.4934 40.4812 54.3625 40.7115 54.2713C40.9435 54.1785 41.212 54.1321 41.5169 54.1321C41.729 54.1321 41.932 54.157 42.1259 54.2067C42.3215 54.2564 42.4947 54.3335 42.6455 54.4379C42.7979 54.5423 42.9181 54.6765 43.0059 54.8406C43.0937 55.003 43.1377 55.1977 43.1377 55.4247V58H42.1334V57.4705H42.1036C42.0422 57.5898 41.9602 57.6951 41.8575 57.7862C41.7547 57.8757 41.6313 57.9461 41.4871 57.9975C41.3429 58.0472 41.1764 58.0721 40.9874 58.0721ZM41.2907 57.3413C41.4465 57.3413 41.584 57.3106 41.7033 57.2493C41.8227 57.1863 41.9163 57.1018 41.9842 56.9957C42.0522 56.8897 42.0862 56.7695 42.0862 56.6353V56.2301C42.053 56.2517 42.0074 56.2715 41.9494 56.2898C41.8931 56.3063 41.8293 56.3221 41.758 56.337C41.6868 56.3503 41.6155 56.3627 41.5443 56.3743C41.473 56.3842 41.4084 56.3933 41.3504 56.4016C41.2261 56.4199 41.1175 56.4489 41.0247 56.4886C40.9319 56.5284 40.8598 56.5823 40.8085 56.6502C40.7571 56.7165 40.7314 56.7994 40.7314 56.8988C40.7314 57.043 40.7836 57.1532 40.888 57.2294C40.9941 57.304 41.1283 57.3413 41.2907 57.3413ZM43.9592 58V54.1818H44.9684V54.8555H45.0132C45.0927 54.6317 45.2253 54.4553 45.4109 54.326C45.5965 54.1967 45.8186 54.1321 46.0771 54.1321C46.3389 54.1321 46.5618 54.1976 46.7458 54.3285C46.9297 54.4577 47.0524 54.6334 47.1137 54.8555H47.1535C47.2313 54.6367 47.3722 54.4619 47.576 54.331C47.7815 54.1984 48.0243 54.1321 48.3044 54.1321C48.6607 54.1321 48.9499 54.2456 49.1719 54.4727C49.3956 54.698 49.5075 55.0179 49.5075 55.4322V58H48.451V55.641C48.451 55.4289 48.3947 55.2698 48.282 55.1637C48.1693 55.0576 48.0285 55.0046 47.8594 55.0046C47.6672 55.0046 47.5172 55.0659 47.4095 55.1886C47.3018 55.3095 47.2479 55.4695 47.2479 55.6683V58H46.2213V55.6186C46.2213 55.4313 46.1674 55.2822 46.0597 55.1712C45.9536 55.0601 45.8136 55.0046 45.6396 55.0046C45.5219 55.0046 45.4159 55.0344 45.3214 55.0941C45.2286 55.1521 45.1549 55.2341 45.1002 55.3402C45.0455 55.4446 45.0182 55.5672 45.0182 55.7081V58H43.9592ZM50.3639 58V52.9091H51.4228V54.8232H51.4551C51.5015 54.7204 51.5686 54.616 51.6565 54.5099C51.746 54.4022 51.862 54.3127 52.0045 54.2415C52.1487 54.1686 52.3276 54.1321 52.5414 54.1321C52.8198 54.1321 53.0767 54.205 53.312 54.3509C53.5473 54.495 53.7354 54.7129 53.8763 55.0046C54.0171 55.2946 54.0876 55.6584 54.0876 56.0959C54.0876 56.5218 54.0188 56.8814 53.8813 57.1747C53.7454 57.4664 53.5598 57.6876 53.3244 57.8384C53.0908 57.9876 52.8289 58.0621 52.5389 58.0621C52.3334 58.0621 52.1586 58.0282 52.0144 57.9602C51.8719 57.8923 51.7551 57.8069 51.6639 57.7042C51.5728 57.5998 51.5032 57.4946 51.4551 57.3885H51.4079V58H50.3639ZM51.4004 56.0909C51.4004 56.3179 51.4319 56.516 51.4949 56.685C51.5579 56.854 51.649 56.9858 51.7683 57.0803C51.8877 57.1731 52.0327 57.2195 52.2033 57.2195C52.3757 57.2195 52.5215 57.1722 52.6408 57.0778C52.7602 56.9817 52.8505 56.8491 52.9118 56.68C52.9748 56.5094 53.0063 56.313 53.0063 56.0909C53.0063 55.8705 52.9756 55.6766 52.9143 55.5092C52.853 55.3419 52.7627 55.2109 52.6433 55.1165C52.524 55.022 52.3774 54.9748 52.2033 54.9748C52.031 54.9748 51.8852 55.0204 51.7658 55.1115C51.6482 55.2027 51.5579 55.3319 51.4949 55.4993C51.4319 55.6667 51.4004 55.8639 51.4004 56.0909ZM56.5193 58.0746C56.1332 58.0746 55.7993 57.9925 55.5175 57.8285C55.2375 57.6628 55.0212 57.4324 54.8687 57.1374C54.7163 56.8408 54.64 56.4969 54.64 56.1058C54.64 55.7114 54.7163 55.3667 54.8687 55.0717C55.0212 54.7751 55.2375 54.5447 55.5175 54.3807C55.7993 54.215 56.1332 54.1321 56.5193 54.1321C56.9054 54.1321 57.2385 54.215 57.5186 54.3807C57.8003 54.5447 58.0174 54.7751 58.1699 55.0717C58.3223 55.3667 58.3986 55.7114 58.3986 56.1058C58.3986 56.4969 58.3223 56.8408 58.1699 57.1374C58.0174 57.4324 57.8003 57.6628 57.5186 57.8285C57.2385 57.9925 56.9054 58.0746 56.5193 58.0746ZM56.5243 57.2543C56.6999 57.2543 56.8466 57.2045 56.9643 57.1051C57.0819 57.004 57.1706 56.8665 57.2302 56.6925C57.2916 56.5185 57.3222 56.3204 57.3222 56.0984C57.3222 55.8763 57.2916 55.6783 57.2302 55.5043C57.1706 55.3303 57.0819 55.1927 56.9643 55.0916C56.8466 54.9905 56.6999 54.94 56.5243 54.94C56.347 54.94 56.1978 54.9905 56.0768 55.0916C55.9575 55.1927 55.8672 55.3303 55.8059 55.5043C55.7462 55.6783 55.7164 55.8763 55.7164 56.0984C55.7164 56.3204 55.7462 56.5185 55.8059 56.6925C55.8672 56.8665 55.9575 57.004 56.0768 57.1051C56.1978 57.2045 56.347 57.2543 56.5243 57.2543ZM60.8123 58.0746C60.4262 58.0746 60.0922 57.9925 59.8105 57.8285C59.5304 57.6628 59.3142 57.4324 59.1617 57.1374C59.0092 56.8408 58.933 56.4969 58.933 56.1058C58.933 55.7114 59.0092 55.3667 59.1617 55.0717C59.3142 54.7751 59.5304 54.5447 59.8105 54.3807C60.0922 54.215 60.4262 54.1321 60.8123 54.1321C61.1984 54.1321 61.5315 54.215 61.8116 54.3807C62.0933 54.5447 62.3104 54.7751 62.4628 55.0717C62.6153 55.3667 62.6915 55.7114 62.6915 56.1058C62.6915 56.4969 62.6153 56.8408 62.4628 57.1374C62.3104 57.4324 62.0933 57.6628 61.8116 57.8285C61.5315 57.9925 61.1984 58.0746 60.8123 58.0746ZM60.8172 57.2543C60.9929 57.2543 61.1396 57.2045 61.2572 57.1051C61.3749 57.004 61.4636 56.8665 61.5232 56.6925C61.5845 56.5185 61.6152 56.3204 61.6152 56.0984C61.6152 55.8763 61.5845 55.6783 61.5232 55.5043C61.4636 55.3303 61.3749 55.1927 61.2572 55.0916C61.1396 54.9905 60.9929 54.94 60.8172 54.94C60.6399 54.94 60.4908 54.9905 60.3698 55.0916C60.2505 55.1927 60.1602 55.3303 60.0989 55.5043C60.0392 55.6783 60.0094 55.8763 60.0094 56.0984C60.0094 56.3204 60.0392 56.5185 60.0989 56.6925C60.1602 56.8665 60.2505 57.004 60.3698 57.1051C60.4908 57.2045 60.6399 57.2543 60.8172 57.2543Z" fill="white"/>
</svg>
